<svg id="visual" viewBox="0 0 1200 300" width="1200" height="300" xmlns="http://www.w3.org/2000/svg" xmlns:xlink="http://www.w3.org/1999/xlink" version="1.1"><path d="M935 300L779 300L779 273L731 273L731 245L875 245L875 218L731 218L731 191L635 191L635 164L851 164L851 136L959 136L959 109L1007 109L1007 82L755 82L755 55L911 55L911 27L779 27L779 0L1200 0L1200 27L1200 27L1200 55L1200 55L1200 82L1200 82L1200 109L1200 109L1200 136L1200 136L1200 164L1200 164L1200 191L1200 191L1200 218L1200 218L1200 245L1200 245L1200 273L1200 273L1200 300L1200 300Z" fill="#715df2"></path><path d="M683 300L611 300L611 273L551 273L551 245L659 245L659 218L575 218L575 191L551 191L551 164L767 164L767 136L803 136L803 109L875 109L875 82L623 82L623 55L779 55L779 27L551 27L551 0L780 0L780 27L912 27L912 55L756 55L756 82L1008 82L1008 109L960 109L960 136L852 136L852 164L636 164L636 191L732 191L732 218L876 218L876 245L732 245L732 273L780 273L780 300L936 300Z" fill="#374fbf"></path><path d="M335 300L311 300L311 273L371 273L371 245L383 245L383 218L371 218L371 191L287 191L287 164L407 164L407 136L431 136L431 109L419 109L419 82L383 82L383 55L419 55L419 27L275 27L275 0L552 0L552 27L780 27L780 55L624 55L624 82L876 82L876 109L804 109L804 136L768 136L768 164L552 164L552 191L576 191L576 218L660 218L660 245L552 245L552 273L612 273L612 300L684 300Z" fill="#003d8a"></path><path d="M191 300L179 300L179 273L287 273L287 245L263 245L263 218L191 218L191 191L203 191L203 164L275 164L275 136L311 136L311 109L311 109L311 82L203 82L203 55L275 55L275 27L167 27L167 0L276 0L276 27L420 27L420 55L384 55L384 82L420 82L420 109L432 109L432 136L408 136L408 164L288 164L288 191L372 191L372 218L384 218L384 245L372 245L372 273L312 273L312 300L336 300Z" fill="#002854"></path><path d="M0 300L0 300L0 273L0 273L0 245L0 245L0 218L0 218L0 191L0 191L0 164L0 164L0 136L0 136L0 109L0 109L0 82L0 82L0 55L0 55L0 27L0 27L0 0L168 0L168 27L276 27L276 55L204 55L204 82L312 82L312 109L312 109L312 136L276 136L276 164L204 164L204 191L192 191L192 218L264 218L264 245L288 245L288 273L180 273L180 300L192 300Z" fill="#001122"></path></svg>