<svg id="visual" viewBox="0 0 900 675" width="900" height="675" xmlns="http://www.w3.org/2000/svg" xmlns:xlink="http://www.w3.org/1999/xlink" version="1.1"><g stroke-width="1" stroke-linejoin="bevel"><path d="M486 322.3L408 360.7L502 365.7Z" fill="#f000a6" stroke="#f000a6"></path><path d="M486 322.3L404 261.3L408 360.7Z" fill="#fa0095" stroke="#fa0095"></path><path d="M336 347.7L382 442.1L408 360.7Z" fill="#a400e7" stroke="#a400e7"></path><path d="M408 360.7L382 442.1L502 365.7Z" fill="#a400e7" stroke="#a400e7"></path><path d="M404 261.3L336 347.7L408 360.7Z" fill="#f000a6" stroke="#f000a6"></path><path d="M498 502.1L587 393.7L502 365.7Z" fill="#ff5f67" stroke="#ff5f67"></path><path d="M502 365.7L611 265.3L486 322.3Z" fill="#ff2587" stroke="#ff2587"></path><path d="M486 322.3L522 215.9L404 261.3Z" fill="#e000b9" stroke="#e000b9"></path><path d="M382 442.1L498 502.1L502 365.7Z" fill="#ff3b7a" stroke="#ff3b7a"></path><path d="M611 265.3L522 215.9L486 322.3Z" fill="#ff4e70" stroke="#ff4e70"></path><path d="M404 261.3L288 326.3L336 347.7Z" fill="#fa0095" stroke="#fa0095"></path><path d="M336 347.7L279 495.1L382 442.1Z" fill="#c800d0" stroke="#c800d0"></path><path d="M498 502.1L613 445.1L587 393.7Z" fill="#ff5f67" stroke="#ff5f67"></path><path d="M587 393.7L611 265.3L502 365.7Z" fill="#a400e7" stroke="#a400e7"></path><path d="M671 372.7L611 265.3L587 393.7Z" fill="#ff2587" stroke="#ff2587"></path><path d="M613 445.1L671 372.7L587 393.7Z" fill="#ff4e70" stroke="#ff4e70"></path><path d="M522 215.9L372 152.9L404 261.3Z" fill="#ff6f61" stroke="#ff6f61"></path><path d="M404 261.3L297 161.9L288 326.3Z" fill="#a400e7" stroke="#a400e7"></path><path d="M232 378.7L279 495.1L336 347.7Z" fill="#6600ff" stroke="#6600ff"></path><path d="M382 442.1L398 602.6L498 502.1Z" fill="#ff2587" stroke="#ff2587"></path><path d="M288 326.3L232 378.7L336 347.7Z" fill="#a400e7" stroke="#a400e7"></path><path d="M235 310.3L232 378.7L288 326.3Z" fill="#ff6f61" stroke="#ff6f61"></path><path d="M297 161.9L235 310.3L288 326.3Z" fill="#a400e7" stroke="#a400e7"></path><path d="M708 182.9L589 159.9L611 265.3Z" fill="#a400e7" stroke="#a400e7"></path><path d="M611 265.3L589 159.9L522 215.9Z" fill="#ff6f61" stroke="#ff6f61"></path><path d="M488 64.4L388 95.4L372 152.9Z" fill="#ff5f67" stroke="#ff5f67"></path><path d="M279 495.1L398 602.6L382 442.1Z" fill="#ff6f61" stroke="#ff6f61"></path><path d="M498 502.1L567 608.6L613 445.1Z" fill="#6600ff" stroke="#6600ff"></path><path d="M671 372.7L688 262.3L611 265.3Z" fill="#ff4e70" stroke="#ff4e70"></path><path d="M372 152.9L297 161.9L404 261.3Z" fill="#fa0095" stroke="#fa0095"></path><path d="M398 602.6L510 610.6L498 502.1Z" fill="#c800d0" stroke="#c800d0"></path><path d="M613 445.1L709 470.1L671 372.7Z" fill="#ff2587" stroke="#ff2587"></path><path d="M488 64.4L372 152.9L522 215.9Z" fill="#ff4e70" stroke="#ff4e70"></path><path d="M372 152.9L306 116.4L297 161.9Z" fill="#a400e7" stroke="#a400e7"></path><path d="M510 610.6L567 608.6L498 502.1Z" fill="#ff4e70" stroke="#ff4e70"></path><path d="M702 597.6L709 470.1L613 445.1Z" fill="#ff6f61" stroke="#ff6f61"></path><path d="M671 372.7L767 285.3L688 262.3Z" fill="#6600ff" stroke="#6600ff"></path><path d="M388 95.4L306 116.4L372 152.9Z" fill="#f000a6" stroke="#f000a6"></path><path d="M297 161.9L198 179.9L235 310.3Z" fill="#a400e7" stroke="#a400e7"></path><path d="M719 93.4L587 104.4L589 159.9Z" fill="#f000a6" stroke="#f000a6"></path><path d="M589 159.9L488 64.4L522 215.9Z" fill="#ff5f67" stroke="#ff5f67"></path><path d="M587 104.4L488 64.4L589 159.9Z" fill="#a400e7" stroke="#a400e7"></path><path d="M334 0L236 126.4L306 116.4Z" fill="#ff4e70" stroke="#ff4e70"></path><path d="M232 378.7L180 469.1L279 495.1Z" fill="#f000a6" stroke="#f000a6"></path><path d="M279 495.1L261 609.6L398 602.6Z" fill="#ff2587" stroke="#ff2587"></path><path d="M63 346.7L180 469.1L232 378.7Z" fill="#e000b9" stroke="#e000b9"></path><path d="M688 262.3L708 182.9L611 265.3Z" fill="#c800d0" stroke="#c800d0"></path><path d="M767 285.3L708 182.9L688 262.3Z" fill="#ff5f67" stroke="#ff5f67"></path><path d="M236 126.4L198 179.9L297 161.9Z" fill="#f000a6" stroke="#f000a6"></path><path d="M63 346.7L138 505.1L180 469.1Z" fill="#a400e7" stroke="#a400e7"></path><path d="M220 601.6L261 609.6L279 495.1Z" fill="#f000a6" stroke="#f000a6"></path><path d="M398 602.6L499 675L510 610.6Z" fill="#6600ff" stroke="#6600ff"></path><path d="M334 0L306 116.4L388 95.4Z" fill="#a400e7" stroke="#a400e7"></path><path d="M306 116.4L236 126.4L297 161.9Z" fill="#ff5f67" stroke="#ff5f67"></path><path d="M510 610.6L499 675L567 608.6Z" fill="#a400e7" stroke="#a400e7"></path><path d="M813 505.1L783 409.7L709 470.1Z" fill="#c800d0" stroke="#c800d0"></path><path d="M361 675L499 675L398 602.6Z" fill="#a400e7" stroke="#a400e7"></path><path d="M783 409.7L767 285.3L671 372.7Z" fill="#6600ff" stroke="#6600ff"></path><path d="M339 675L361 675L398 602.6Z" fill="#a400e7" stroke="#a400e7"></path><path d="M709 470.1L783 409.7L671 372.7Z" fill="#a400e7" stroke="#a400e7"></path><path d="M702 597.6L613 445.1L567 608.6Z" fill="#ff2587" stroke="#ff2587"></path><path d="M261 609.6L339 675L398 602.6Z" fill="#6600ff" stroke="#6600ff"></path><path d="M180 469.1L220 601.6L279 495.1Z" fill="#6600ff" stroke="#6600ff"></path><path d="M261 609.6L201 675L339 675Z" fill="#ff5f67" stroke="#ff5f67"></path><path d="M499 675L588 675L567 608.6Z" fill="#ff4e70" stroke="#ff4e70"></path><path d="M588 675L702 597.6L567 608.6Z" fill="#6600ff" stroke="#6600ff"></path><path d="M63 346.7L232 378.7L235 310.3Z" fill="#fa0095" stroke="#fa0095"></path><path d="M180 469.1L138 505.1L220 601.6Z" fill="#ff4e70" stroke="#ff4e70"></path><path d="M636 0L471 0L488 64.4Z" fill="#c800d0" stroke="#c800d0"></path><path d="M488 64.4L417 0L388 95.4Z" fill="#ff2587" stroke="#ff2587"></path><path d="M636 0L488 64.4L587 104.4Z" fill="#ff5f67" stroke="#ff5f67"></path><path d="M471 0L417 0L488 64.4Z" fill="#fa0095" stroke="#fa0095"></path><path d="M804 173.9L719 93.4L708 182.9Z" fill="#ff6f61" stroke="#ff6f61"></path><path d="M708 182.9L719 93.4L589 159.9Z" fill="#6600ff" stroke="#6600ff"></path><path d="M417 0L334 0L388 95.4Z" fill="#ff5f67" stroke="#ff5f67"></path><path d="M82 157.9L82 276.3L198 179.9Z" fill="#ff4e70" stroke="#ff4e70"></path><path d="M198 179.9L82 276.3L235 310.3Z" fill="#e000b9" stroke="#e000b9"></path><path d="M122 97.4L198 179.9L236 126.4Z" fill="#ff3b7a" stroke="#ff3b7a"></path><path d="M702 597.6L813 505.1L709 470.1Z" fill="#a400e7" stroke="#a400e7"></path><path d="M900 252.3L804 173.9L767 285.3Z" fill="#e000b9" stroke="#e000b9"></path><path d="M82 276.3L63 346.7L235 310.3Z" fill="#fa0095" stroke="#fa0095"></path><path d="M767 285.3L804 173.9L708 182.9Z" fill="#ff4e70" stroke="#ff4e70"></path><path d="M900 379.7L767 285.3L783 409.7Z" fill="#ff6f61" stroke="#ff6f61"></path><path d="M664 0L587 104.4L719 93.4Z" fill="#6600ff" stroke="#6600ff"></path><path d="M664 0L636 0L587 104.4Z" fill="#e000b9" stroke="#e000b9"></path><path d="M78 581.6L201 675L220 601.6Z" fill="#ff6f61" stroke="#ff6f61"></path><path d="M220 601.6L201 675L261 609.6Z" fill="#f000a6" stroke="#f000a6"></path><path d="M78 581.6L220 601.6L138 505.1Z" fill="#f000a6" stroke="#f000a6"></path><path d="M768 0L664 0L719 93.4Z" fill="#ff3b7a" stroke="#ff3b7a"></path><path d="M702 597.6L837 585.6L813 505.1Z" fill="#f000a6" stroke="#f000a6"></path><path d="M588 675L730 675L702 597.6Z" fill="#e000b9" stroke="#e000b9"></path><path d="M0 280.3L0 387.7L63 346.7Z" fill="#c800d0" stroke="#c800d0"></path><path d="M171 0L122 97.4L236 126.4Z" fill="#fa0095" stroke="#fa0095"></path><path d="M122 97.4L82 157.9L198 179.9Z" fill="#ff6f61" stroke="#ff6f61"></path><path d="M0 486.1L78 581.6L138 505.1Z" fill="#a400e7" stroke="#a400e7"></path><path d="M804 173.9L787 71.4L719 93.4Z" fill="#fa0095" stroke="#fa0095"></path><path d="M810 675L837 585.6L702 597.6Z" fill="#ff4e70" stroke="#ff4e70"></path><path d="M900 458.1L900 379.7L783 409.7Z" fill="#a400e7" stroke="#a400e7"></path><path d="M900 458.1L783 409.7L813 505.1Z" fill="#ff2587" stroke="#ff2587"></path><path d="M804 173.9L900 92.4L787 71.4Z" fill="#e000b9" stroke="#e000b9"></path><path d="M837 585.6L900 458.1L813 505.1Z" fill="#ff3b7a" stroke="#ff3b7a"></path><path d="M63 346.7L0 486.1L138 505.1Z" fill="#ff5f67" stroke="#ff5f67"></path><path d="M0 280.3L63 346.7L82 276.3Z" fill="#ff5f67" stroke="#ff5f67"></path><path d="M900 379.7L900 252.3L767 285.3Z" fill="#ff5f67" stroke="#ff5f67"></path><path d="M334 0L171 0L236 126.4Z" fill="#f000a6" stroke="#f000a6"></path><path d="M0 134.4L0 193.9L82 157.9Z" fill="#ff5f67" stroke="#ff5f67"></path><path d="M0 193.9L82 276.3L82 157.9Z" fill="#c800d0" stroke="#c800d0"></path><path d="M0 193.9L0 280.3L82 276.3Z" fill="#fa0095" stroke="#fa0095"></path><path d="M0 387.7L0 486.1L63 346.7Z" fill="#ff6f61" stroke="#ff6f61"></path><path d="M730 675L810 675L702 597.6Z" fill="#ff2587" stroke="#ff2587"></path><path d="M837 585.6L900 612.6L900 458.1Z" fill="#6600ff" stroke="#6600ff"></path><path d="M900 0L768 0L787 71.4Z" fill="#fa0095" stroke="#fa0095"></path><path d="M787 71.4L768 0L719 93.4Z" fill="#e000b9" stroke="#e000b9"></path><path d="M900 252.3L900 181.9L804 173.9Z" fill="#ff4e70" stroke="#ff4e70"></path><path d="M0 134.4L82 157.9L122 97.4Z" fill="#f000a6" stroke="#f000a6"></path><path d="M78 581.6L68 675L201 675Z" fill="#ff6f61" stroke="#ff6f61"></path><path d="M0 590.6L68 675L78 581.6Z" fill="#a400e7" stroke="#a400e7"></path><path d="M91 0L0 134.4L122 97.4Z" fill="#fa0095" stroke="#fa0095"></path><path d="M171 0L91 0L122 97.4Z" fill="#c800d0" stroke="#c800d0"></path><path d="M0 486.1L0 590.6L78 581.6Z" fill="#6600ff" stroke="#6600ff"></path><path d="M810 675L900 612.6L837 585.6Z" fill="#f000a6" stroke="#f000a6"></path><path d="M900 181.9L900 92.4L804 173.9Z" fill="#c800d0" stroke="#c800d0"></path><path d="M810 675L900 675L900 612.6Z" fill="#6600ff" stroke="#6600ff"></path><path d="M0 590.6L0 675L68 675Z" fill="#ff6f61" stroke="#ff6f61"></path><path d="M900 92.4L900 0L787 71.4Z" fill="#fa0095" stroke="#fa0095"></path><path d="M91 0L0 0L0 134.4Z" fill="#c800d0" stroke="#c800d0"></path></g></svg>