<svg id="visual" viewBox="0 0 900 675" width="900" height="675" xmlns="http://www.w3.org/2000/svg" xmlns:xlink="http://www.w3.org/1999/xlink" version="1.1"><path d="M0 210L13.7 196.5C27.3 183 54.7 156 82 151.5C109.3 147 136.7 165 163.8 187.5C191 210 218 237 245.2 228C272.3 219 299.7 174 327 174C354.3 174 381.7 219 409 227C436.3 235 463.7 206 491 183.5C518.3 161 545.7 145 573 133.7C600.3 122.3 627.7 115.7 654.8 132.7C682 149.7 709 190.3 736.2 193.7C763.3 197 790.7 163 818 151.7C845.3 140.3 872.7 151.7 886.3 157.3L900 163L900 0L886.3 0C872.7 0 845.3 0 818 0C790.7 0 763.3 0 736.2 0C709 0 682 0 654.8 0C627.7 0 600.3 0 573 0C545.7 0 518.3 0 491 0C463.7 0 436.3 0 409 0C381.7 0 354.3 0 327 0C299.7 0 272.3 0 245.2 0C218 0 191 0 163.8 0C136.7 0 109.3 0 82 0C54.7 0 27.3 0 13.7 0L0 0Z" fill="#9e90fa"></path><path d="M0 339L13.7 321C27.3 303 54.7 267 82 254.5C109.3 242 136.7 253 163.8 275.5C191 298 218 332 245.2 318.5C272.3 305 299.7 244 327 244C354.3 244 381.7 305 409 317.5C436.3 330 463.7 294 491 262.5C518.3 231 545.7 204 573 201.7C600.3 199.3 627.7 221.7 654.8 250.8C682 280 709 316 736.2 319.3C763.3 322.7 790.7 293.3 818 285.5C845.3 277.7 872.7 291.3 886.3 298.2L900 305L900 161L886.3 155.3C872.7 149.7 845.3 138.3 818 149.7C790.7 161 763.3 195 736.2 191.7C709 188.3 682 147.7 654.8 130.7C627.7 113.7 600.3 120.3 573 131.7C545.7 143 518.3 159 491 181.5C463.7 204 436.3 233 409 225C381.7 217 354.3 172 327 172C299.7 172 272.3 217 245.2 226C218 235 191 208 163.8 185.5C136.7 163 109.3 145 82 149.5C54.7 154 27.3 181 13.7 194.5L0 208Z" fill="#8877f6"></path><path d="M0 480L13.7 468.8C27.3 457.7 54.7 435.3 82 418.5C109.3 401.7 136.7 390.3 163.8 398.2C191 406 218 433 245.2 428.5C272.3 424 299.7 388 327 385.8C354.3 383.7 381.7 415.3 409 423.2C436.3 431 463.7 415 491 402.5C518.3 390 545.7 381 573 380C600.3 379 627.7 386 654.8 405.2C682 424.3 709 455.7 736.2 459C763.3 462.3 790.7 437.7 818 419.7C845.3 401.7 872.7 390.3 886.3 384.7L900 379L900 303L886.3 296.2C872.7 289.3 845.3 275.7 818 283.5C790.7 291.3 763.3 320.7 736.2 317.3C709 314 682 278 654.8 248.8C627.7 219.7 600.3 197.3 573 199.7C545.7 202 518.3 229 491 260.5C463.7 292 436.3 328 409 315.5C381.7 303 354.3 242 327 242C299.7 242 272.3 303 245.2 316.5C218 330 191 296 163.8 273.5C136.7 251 109.3 240 82 252.5C54.7 265 27.3 301 13.7 319L0 337Z" fill="#715df2"></path><path d="M0 602L13.7 605.3C27.3 608.7 54.7 615.3 82 613C109.3 610.7 136.7 599.3 163.8 600.5C191 601.7 218 615.3 245.2 610.8C272.3 606.3 299.7 583.7 327 580.3C354.3 577 381.7 593 409 593C436.3 593 463.7 577 491 581.5C518.3 586 545.7 611 573 616.7C600.3 622.3 627.7 608.7 654.8 600.7C682 592.7 709 590.3 736.2 588.2C763.3 586 790.7 584 818 587.5C845.3 591 872.7 600 886.3 604.5L900 609L900 377L886.3 382.7C872.7 388.3 845.3 399.7 818 417.7C790.7 435.7 763.3 460.3 736.2 457C709 453.7 682 422.3 654.8 403.2C627.7 384 600.3 377 573 378C545.7 379 518.3 388 491 400.5C463.7 413 436.3 429 409 421.2C381.7 413.3 354.3 381.7 327 383.8C299.7 386 272.3 422 245.2 426.5C218 431 191 404 163.8 396.2C136.7 388.3 109.3 399.7 82 416.5C54.7 433.3 27.3 455.7 13.7 466.8L0 478Z" fill="#614dd5"></path><path d="M0 676L13.7 676C27.3 676 54.7 676 82 676C109.3 676 136.7 676 163.8 676C191 676 218 676 245.2 676C272.3 676 299.7 676 327 676C354.3 676 381.7 676 409 676C436.3 676 463.7 676 491 676C518.3 676 545.7 676 573 676C600.3 676 627.7 676 654.8 676C682 676 709 676 736.2 676C763.3 676 790.7 676 818 676C845.3 676 872.7 676 886.3 676L900 676L900 607L886.3 602.5C872.7 598 845.3 589 818 585.5C790.7 582 763.3 584 736.2 586.2C709 588.3 682 590.7 654.8 598.7C627.7 606.7 600.3 620.3 573 614.7C545.7 609 518.3 584 491 579.5C463.7 575 436.3 591 409 591C381.7 591 354.3 575 327 578.3C299.7 581.7 272.3 604.3 245.2 608.8C218 613.3 191 599.7 163.8 598.5C136.7 597.3 109.3 608.7 82 611C54.7 613.3 27.3 606.7 13.7 603.3L0 600Z" fill="#513eb8"></path></svg>